<mxfile host="65bd71144e">
    <diagram name="PÃ¡gina-1" id="6X5oJjc_eYNXYKUeGqlE">
        <mxGraphModel dx="2151" dy="1026" grid="1" gridSize="10" guides="1" tooltips="1" connect="1" arrows="1" fold="1" page="1" pageScale="1" pageWidth="827" pageHeight="1169" math="0" shadow="0">
            <root>
                <mxCell id="0"/>
                <mxCell id="1" parent="0"/>
                <mxCell id="h-8yNN9zocmhx1JUEkoD-1" value="Producto" style="rounded=0;whiteSpace=wrap;html=1;" parent="1" vertex="1">
                    <mxGeometry x="400" y="230" width="120" height="60" as="geometry"/>
                </mxCell>
                <mxCell id="h-8yNN9zocmhx1JUEkoD-16" value="" style="endArrow=none;html=1;rounded=0;entryX=0.842;entryY=0;entryDx=0;entryDy=0;entryPerimeter=0;" parent="1" target="h-8yNN9zocmhx1JUEkoD-1" edge="1">
                    <mxGeometry width="50" height="50" relative="1" as="geometry">
                        <mxPoint x="570" y="120" as="sourcePoint"/>
                        <mxPoint x="710" y="230" as="targetPoint"/>
                    </mxGeometry>
                </mxCell>
                <mxCell id="h-8yNN9zocmhx1JUEkoD-17" value="" style="endArrow=none;html=1;rounded=0;entryX=1;entryY=0.25;entryDx=0;entryDy=0;exitX=0.083;exitY=0.875;exitDx=0;exitDy=0;exitPerimeter=0;" parent="1" target="h-8yNN9zocmhx1JUEkoD-1" edge="1">
                    <mxGeometry width="50" height="50" relative="1" as="geometry">
                        <mxPoint x="679.9599999999998" y="180" as="sourcePoint"/>
                        <mxPoint x="710" y="310" as="targetPoint"/>
                    </mxGeometry>
                </mxCell>
                <mxCell id="h-8yNN9zocmhx1JUEkoD-21" style="edgeStyle=orthogonalEdgeStyle;rounded=0;orthogonalLoop=1;jettySize=auto;html=1;exitX=0.5;exitY=0;exitDx=0;exitDy=0;exitPerimeter=0;" parent="1" source="h-8yNN9zocmhx1JUEkoD-18" edge="1">
                    <mxGeometry relative="1" as="geometry">
                        <mxPoint x="400" y="300" as="targetPoint"/>
                    </mxGeometry>
                </mxCell>
                <mxCell id="h-8yNN9zocmhx1JUEkoD-18" value="Vende" style="strokeWidth=2;html=1;shape=mxgraph.flowchart.decision;whiteSpace=wrap;" parent="1" vertex="1">
                    <mxGeometry x="290" y="310" width="100" height="100" as="geometry"/>
                </mxCell>
                <mxCell id="h-8yNN9zocmhx1JUEkoD-22" value="id_cliente" style="strokeWidth=2;html=1;shape=mxgraph.flowchart.start_1;whiteSpace=wrap;" parent="1" vertex="1">
                    <mxGeometry x="920" y="490" width="140" height="50" as="geometry"/>
                </mxCell>
                <mxCell id="h-8yNN9zocmhx1JUEkoD-23" style="edgeStyle=orthogonalEdgeStyle;rounded=0;orthogonalLoop=1;jettySize=auto;html=1;exitX=0.5;exitY=1;exitDx=0;exitDy=0;exitPerimeter=0;" parent="1" source="h-8yNN9zocmhx1JUEkoD-22" target="h-8yNN9zocmhx1JUEkoD-22" edge="1">
                    <mxGeometry relative="1" as="geometry"/>
                </mxCell>
                <mxCell id="h-8yNN9zocmhx1JUEkoD-26" value="Nombre" style="strokeWidth=2;html=1;shape=mxgraph.flowchart.start_1;whiteSpace=wrap;" parent="1" vertex="1">
                    <mxGeometry x="890" y="580" width="140" height="50" as="geometry"/>
                </mxCell>
                <mxCell id="h-8yNN9zocmhx1JUEkoD-27" value="Direccion" style="strokeWidth=2;html=1;shape=mxgraph.flowchart.start_1;whiteSpace=wrap;" parent="1" vertex="1">
                    <mxGeometry x="710" y="615" width="140" height="50" as="geometry"/>
                </mxCell>
                <mxCell id="h-8yNN9zocmhx1JUEkoD-28" value="Producto" style="strokeWidth=2;html=1;shape=mxgraph.flowchart.start_1;whiteSpace=wrap;" parent="1" vertex="1">
                    <mxGeometry x="820" y="410" width="140" height="50" as="geometry"/>
                </mxCell>
                <mxCell id="h-8yNN9zocmhx1JUEkoD-42" style="edgeStyle=orthogonalEdgeStyle;rounded=0;orthogonalLoop=1;jettySize=auto;html=1;exitX=0.5;exitY=0;exitDx=0;exitDy=0;exitPerimeter=0;entryX=1;entryY=1;entryDx=0;entryDy=0;" parent="1" source="h-8yNN9zocmhx1JUEkoD-29" target="h-8yNN9zocmhx1JUEkoD-1" edge="1">
                    <mxGeometry relative="1" as="geometry"/>
                </mxCell>
                <mxCell id="h-8yNN9zocmhx1JUEkoD-29" value="Compra" style="strokeWidth=2;html=1;shape=mxgraph.flowchart.decision;whiteSpace=wrap;" parent="1" vertex="1">
                    <mxGeometry x="550" y="310" width="100" height="100" as="geometry"/>
                </mxCell>
                <mxCell id="h-8yNN9zocmhx1JUEkoD-30" style="edgeStyle=orthogonalEdgeStyle;rounded=0;orthogonalLoop=1;jettySize=auto;html=1;exitX=0.5;exitY=1;exitDx=0;exitDy=0;" parent="1" edge="1">
                    <mxGeometry relative="1" as="geometry">
                        <mxPoint x="280" y="550" as="sourcePoint"/>
                        <mxPoint x="280" y="550" as="targetPoint"/>
                    </mxGeometry>
                </mxCell>
                <mxCell id="h-8yNN9zocmhx1JUEkoD-31" value="Cliente" style="rounded=0;whiteSpace=wrap;html=1;" parent="1" vertex="1">
                    <mxGeometry x="640" y="460" width="120" height="60" as="geometry"/>
                </mxCell>
                <mxCell id="h-8yNN9zocmhx1JUEkoD-33" style="edgeStyle=orthogonalEdgeStyle;rounded=0;orthogonalLoop=1;jettySize=auto;html=1;exitX=0.5;exitY=0;exitDx=0;exitDy=0;" parent="1" source="h-8yNN9zocmhx1JUEkoD-32" target="h-8yNN9zocmhx1JUEkoD-18" edge="1">
                    <mxGeometry relative="1" as="geometry"/>
                </mxCell>
                <mxCell id="h-8yNN9zocmhx1JUEkoD-32" value="Proveedor" style="rounded=0;whiteSpace=wrap;html=1;" parent="1" vertex="1">
                    <mxGeometry x="170" y="480" width="120" height="60" as="geometry"/>
                </mxCell>
                <mxCell id="h-8yNN9zocmhx1JUEkoD-34" style="edgeStyle=orthogonalEdgeStyle;rounded=0;orthogonalLoop=1;jettySize=auto;html=1;exitX=0;exitY=0;exitDx=0;exitDy=0;entryX=0.5;entryY=1;entryDx=0;entryDy=0;entryPerimeter=0;" parent="1" source="h-8yNN9zocmhx1JUEkoD-31" target="h-8yNN9zocmhx1JUEkoD-29" edge="1">
                    <mxGeometry relative="1" as="geometry"/>
                </mxCell>
                <mxCell id="h-8yNN9zocmhx1JUEkoD-36" value="" style="endArrow=none;html=1;rounded=0;" parent="1" edge="1">
                    <mxGeometry width="50" height="50" relative="1" as="geometry">
                        <mxPoint x="770" y="610" as="sourcePoint"/>
                        <mxPoint x="740" y="520" as="targetPoint"/>
                    </mxGeometry>
                </mxCell>
                <mxCell id="h-8yNN9zocmhx1JUEkoD-39" value="" style="endArrow=none;html=1;rounded=0;exitX=0.145;exitY=0.145;exitDx=0;exitDy=0;exitPerimeter=0;" parent="1" source="h-8yNN9zocmhx1JUEkoD-26" edge="1">
                    <mxGeometry width="50" height="50" relative="1" as="geometry">
                        <mxPoint x="790" y="600" as="sourcePoint"/>
                        <mxPoint x="760" y="510" as="targetPoint"/>
                    </mxGeometry>
                </mxCell>
                <mxCell id="h-8yNN9zocmhx1JUEkoD-40" value="" style="endArrow=none;html=1;rounded=0;" parent="1" source="h-8yNN9zocmhx1JUEkoD-22" edge="1">
                    <mxGeometry width="50" height="50" relative="1" as="geometry">
                        <mxPoint x="910" y="557" as="sourcePoint"/>
                        <mxPoint x="760" y="480" as="targetPoint"/>
                    </mxGeometry>
                </mxCell>
                <mxCell id="h-8yNN9zocmhx1JUEkoD-41" value="" style="endArrow=none;html=1;rounded=0;" parent="1" source="h-8yNN9zocmhx1JUEkoD-28" edge="1">
                    <mxGeometry width="50" height="50" relative="1" as="geometry">
                        <mxPoint x="910" y="540" as="sourcePoint"/>
                        <mxPoint x="760" y="463" as="targetPoint"/>
                    </mxGeometry>
                </mxCell>
                <mxCell id="h-8yNN9zocmhx1JUEkoD-43" value="Nombre" style="strokeWidth=2;html=1;shape=mxgraph.flowchart.start_1;whiteSpace=wrap;" parent="1" vertex="1">
                    <mxGeometry x="-130" y="585" width="140" height="50" as="geometry"/>
                </mxCell>
                <mxCell id="h-8yNN9zocmhx1JUEkoD-44" value="Telefono" style="strokeWidth=2;html=1;shape=mxgraph.flowchart.start_1;whiteSpace=wrap;" parent="1" vertex="1">
                    <mxGeometry x="60" y="640" width="140" height="50" as="geometry"/>
                </mxCell>
                <mxCell id="h-8yNN9zocmhx1JUEkoD-45" value="id_proveedor" style="strokeWidth=2;html=1;shape=mxgraph.flowchart.start_1;whiteSpace=wrap;" parent="1" vertex="1">
                    <mxGeometry x="-130" y="520" width="140" height="50" as="geometry"/>
                </mxCell>
                <mxCell id="h-8yNN9zocmhx1JUEkoD-46" value="Direccion" style="strokeWidth=2;html=1;shape=mxgraph.flowchart.start_1;whiteSpace=wrap;" parent="1" vertex="1">
                    <mxGeometry x="-90" y="640" width="140" height="50" as="geometry"/>
                </mxCell>
                <mxCell id="h-8yNN9zocmhx1JUEkoD-47" value="Email" style="strokeWidth=2;html=1;shape=mxgraph.flowchart.start_1;whiteSpace=wrap;" parent="1" vertex="1">
                    <mxGeometry x="-110" y="440" width="140" height="50" as="geometry"/>
                </mxCell>
                <mxCell id="h-8yNN9zocmhx1JUEkoD-48" value="" style="endArrow=none;html=1;rounded=0;entryX=0;entryY=0;entryDx=0;entryDy=0;" parent="1" target="h-8yNN9zocmhx1JUEkoD-32" edge="1">
                    <mxGeometry width="50" height="50" relative="1" as="geometry">
                        <mxPoint x="30" y="470" as="sourcePoint"/>
                        <mxPoint x="80" y="420" as="targetPoint"/>
                    </mxGeometry>
                </mxCell>
                <mxCell id="h-8yNN9zocmhx1JUEkoD-49" value="" style="endArrow=none;html=1;rounded=0;entryX=0;entryY=0.25;entryDx=0;entryDy=0;exitX=0.964;exitY=0.26;exitDx=0;exitDy=0;exitPerimeter=0;" parent="1" source="h-8yNN9zocmhx1JUEkoD-45" target="h-8yNN9zocmhx1JUEkoD-32" edge="1">
                    <mxGeometry width="50" height="50" relative="1" as="geometry">
                        <mxPoint x="40" y="480" as="sourcePoint"/>
                        <mxPoint x="180" y="490" as="targetPoint"/>
                    </mxGeometry>
                </mxCell>
                <mxCell id="h-8yNN9zocmhx1JUEkoD-50" value="" style="endArrow=none;html=1;rounded=0;entryX=0;entryY=0.75;entryDx=0;entryDy=0;exitX=1;exitY=0.5;exitDx=0;exitDy=0;exitPerimeter=0;" parent="1" source="h-8yNN9zocmhx1JUEkoD-43" target="h-8yNN9zocmhx1JUEkoD-32" edge="1">
                    <mxGeometry width="50" height="50" relative="1" as="geometry">
                        <mxPoint x="50" y="490" as="sourcePoint"/>
                        <mxPoint x="190" y="500" as="targetPoint"/>
                    </mxGeometry>
                </mxCell>
                <mxCell id="h-8yNN9zocmhx1JUEkoD-51" value="" style="endArrow=none;html=1;rounded=0;entryX=0;entryY=1;entryDx=0;entryDy=0;exitX=0.855;exitY=0.145;exitDx=0;exitDy=0;exitPerimeter=0;" parent="1" source="h-8yNN9zocmhx1JUEkoD-46" target="h-8yNN9zocmhx1JUEkoD-32" edge="1">
                    <mxGeometry width="50" height="50" relative="1" as="geometry">
                        <mxPoint x="60" y="500" as="sourcePoint"/>
                        <mxPoint x="200" y="510" as="targetPoint"/>
                    </mxGeometry>
                </mxCell>
                <mxCell id="h-8yNN9zocmhx1JUEkoD-52" value="" style="endArrow=none;html=1;rounded=0;exitX=0.6;exitY=-0.06;exitDx=0;exitDy=0;exitPerimeter=0;" parent="1" source="h-8yNN9zocmhx1JUEkoD-44" edge="1">
                    <mxGeometry width="50" height="50" relative="1" as="geometry">
                        <mxPoint x="150" y="630" as="sourcePoint"/>
                        <mxPoint x="210" y="540" as="targetPoint"/>
                    </mxGeometry>
                </mxCell>
                <mxCell id="5" value="Empleado" style="rounded=0;whiteSpace=wrap;html=1;" parent="1" vertex="1">
                    <mxGeometry x="530" y="60" width="120" height="60" as="geometry"/>
                </mxCell>
                <mxCell id="6" value="Transaccion/Venta" style="rounded=0;whiteSpace=wrap;html=1;" parent="1" vertex="1">
                    <mxGeometry x="680" y="150" width="120" height="60" as="geometry"/>
                </mxCell>
                <mxCell id="7" value="Nombre" style="ellipse;whiteSpace=wrap;html=1;" parent="1" vertex="1">
                    <mxGeometry x="10" y="60" width="120" height="40" as="geometry"/>
                </mxCell>
                <mxCell id="8" value="DescripciÃ³n" style="ellipse;whiteSpace=wrap;html=1;" parent="1" vertex="1">
                    <mxGeometry x="-130" y="160" width="120" height="40" as="geometry"/>
                </mxCell>
                <mxCell id="10" value="Precio" style="ellipse;whiteSpace=wrap;html=1;" parent="1" vertex="1">
                    <mxGeometry x="-140" y="230" width="120" height="40" as="geometry"/>
                </mxCell>
                <mxCell id="11" value="Categoria" style="ellipse;whiteSpace=wrap;html=1;" parent="1" vertex="1">
                    <mxGeometry x="-80" y="100" width="120" height="40" as="geometry"/>
                </mxCell>
                <mxCell id="12" value="Stock" style="ellipse;whiteSpace=wrap;html=1;" parent="1" vertex="1">
                    <mxGeometry x="-80" y="280" width="120" height="40" as="geometry"/>
                </mxCell>
                <mxCell id="13" value="" style="endArrow=none;html=1;" parent="1" source="7" edge="1">
                    <mxGeometry width="50" height="50" relative="1" as="geometry">
                        <mxPoint x="-30" y="220" as="sourcePoint"/>
                        <mxPoint x="400" y="250" as="targetPoint"/>
                    </mxGeometry>
                </mxCell>
                <mxCell id="14" value="" style="endArrow=none;html=1;entryX=0.008;entryY=0.647;entryDx=0;entryDy=0;entryPerimeter=0;" parent="1" source="11" target="h-8yNN9zocmhx1JUEkoD-1" edge="1">
                    <mxGeometry width="50" height="50" relative="1" as="geometry">
                        <mxPoint x="10" y="220" as="sourcePoint"/>
                        <mxPoint x="410" y="250" as="targetPoint"/>
                    </mxGeometry>
                </mxCell>
                <mxCell id="15" value="" style="endArrow=none;html=1;exitX=0.934;exitY=0.778;exitDx=0;exitDy=0;exitPerimeter=0;entryX=0;entryY=0.75;entryDx=0;entryDy=0;" parent="1" source="8" target="h-8yNN9zocmhx1JUEkoD-1" edge="1">
                    <mxGeometry width="50" height="50" relative="1" as="geometry">
                        <mxPoint x="20" y="250" as="sourcePoint"/>
                        <mxPoint x="410" y="250" as="targetPoint"/>
                    </mxGeometry>
                </mxCell>
                <mxCell id="16" value="" style="endArrow=none;html=1;exitX=1;exitY=0.5;exitDx=0;exitDy=0;entryX=0;entryY=0.25;entryDx=0;entryDy=0;" parent="1" source="10" edge="1" target="h-8yNN9zocmhx1JUEkoD-1">
                    <mxGeometry width="50" height="50" relative="1" as="geometry">
                        <mxPoint x="30" y="260" as="sourcePoint"/>
                        <mxPoint x="80" y="210" as="targetPoint"/>
                    </mxGeometry>
                </mxCell>
                <mxCell id="17" value="" style="endArrow=none;html=1;entryX=0;entryY=0;entryDx=0;entryDy=0;" parent="1" source="12" target="h-8yNN9zocmhx1JUEkoD-1" edge="1">
                    <mxGeometry width="50" height="50" relative="1" as="geometry">
                        <mxPoint x="20" y="290" as="sourcePoint"/>
                        <mxPoint x="410" y="250" as="targetPoint"/>
                    </mxGeometry>
                </mxCell>
                <mxCell id="34" value="Fecha" style="ellipse;whiteSpace=wrap;html=1;" parent="1" vertex="1">
                    <mxGeometry x="620" y="240" width="120" height="40" as="geometry"/>
                </mxCell>
                <mxCell id="35" value="Cantidad" style="ellipse;whiteSpace=wrap;html=1;" parent="1" vertex="1">
                    <mxGeometry x="770" y="240" width="120" height="40" as="geometry"/>
                </mxCell>
                <mxCell id="36" value="PrecioTotal" style="ellipse;whiteSpace=wrap;html=1;" parent="1" vertex="1">
                    <mxGeometry x="900" y="220" width="120" height="40" as="geometry"/>
                </mxCell>
                <mxCell id="37" value="Cliente" style="ellipse;whiteSpace=wrap;html=1;" parent="1" vertex="1">
                    <mxGeometry x="880" y="160" width="120" height="40" as="geometry"/>
                </mxCell>
                <mxCell id="38" value="" style="endArrow=none;html=1;exitX=0.646;exitY=-0.011;exitDx=0;exitDy=0;exitPerimeter=0;" parent="1" source="34" target="6" edge="1">
                    <mxGeometry width="50" height="50" relative="1" as="geometry">
                        <mxPoint x="560" y="210" as="sourcePoint"/>
                        <mxPoint x="610" y="160" as="targetPoint"/>
                    </mxGeometry>
                </mxCell>
                <mxCell id="40" value="" style="endArrow=none;html=1;rounded=0;exitX=0;exitY=0;exitDx=0;exitDy=0;entryX=1;entryY=0.75;entryDx=0;entryDy=0;" parent="1" source="36" target="6" edge="1">
                    <mxGeometry width="50" height="50" relative="1" as="geometry">
                        <mxPoint x="950" y="229.99782608695648" as="sourcePoint"/>
                        <mxPoint x="790.0000000000005" y="205.64999999999998" as="targetPoint"/>
                    </mxGeometry>
                </mxCell>
                <mxCell id="41" value="" style="endArrow=none;html=1;rounded=0;entryX=1;entryY=1;entryDx=0;entryDy=0;" parent="1" source="35" target="6" edge="1">
                    <mxGeometry width="50" height="50" relative="1" as="geometry">
                        <mxPoint x="927.5735931288073" y="235.8578643762694" as="sourcePoint"/>
                        <mxPoint x="810.0000000000005" y="205" as="targetPoint"/>
                    </mxGeometry>
                </mxCell>
                <mxCell id="42" value="" style="endArrow=none;html=1;rounded=0;exitX=0;exitY=0;exitDx=0;exitDy=0;entryX=1;entryY=0.75;entryDx=0;entryDy=0;" parent="1" source="37" edge="1">
                    <mxGeometry width="50" height="50" relative="1" as="geometry">
                        <mxPoint x="917.5735931288073" y="190.8578643762694" as="sourcePoint"/>
                        <mxPoint x="800.0000000000005" y="160" as="targetPoint"/>
                    </mxGeometry>
                </mxCell>
                <mxCell id="43" value="Nombre" style="ellipse;whiteSpace=wrap;html=1;" parent="1" vertex="1">
                    <mxGeometry x="720" y="20" width="120" height="40" as="geometry"/>
                </mxCell>
                <mxCell id="44" value="Apellido" style="ellipse;whiteSpace=wrap;html=1;" parent="1" vertex="1">
                    <mxGeometry x="870" y="40" width="120" height="40" as="geometry"/>
                </mxCell>
                <mxCell id="45" value="Puesto" style="ellipse;whiteSpace=wrap;html=1;" parent="1" vertex="1">
                    <mxGeometry x="790" y="110" width="120" height="40" as="geometry"/>
                </mxCell>
                <mxCell id="46" value="Puesto" style="ellipse;whiteSpace=wrap;html=1;" parent="1" vertex="1">
                    <mxGeometry x="930" y="90" width="120" height="40" as="geometry"/>
                </mxCell>
                <mxCell id="47" value="" style="endArrow=none;html=1;entryX=0;entryY=0.5;entryDx=0;entryDy=0;exitX=1;exitY=0;exitDx=0;exitDy=0;" parent="1" source="5" target="43" edge="1">
                    <mxGeometry width="50" height="50" relative="1" as="geometry">
                        <mxPoint x="560" y="210" as="sourcePoint"/>
                        <mxPoint x="610" y="160" as="targetPoint"/>
                    </mxGeometry>
                </mxCell>
                <mxCell id="48" value="" style="endArrow=none;html=1;entryX=0;entryY=0.5;entryDx=0;entryDy=0;exitX=1;exitY=1;exitDx=0;exitDy=0;" parent="1" source="5" target="45" edge="1">
                    <mxGeometry width="50" height="50" relative="1" as="geometry">
                        <mxPoint x="660.0000000000005" y="90" as="sourcePoint"/>
                        <mxPoint x="720.0000000000005" y="80" as="targetPoint"/>
                    </mxGeometry>
                </mxCell>
                <mxCell id="49" value="" style="endArrow=none;html=1;entryX=0;entryY=0.5;entryDx=0;entryDy=0;exitX=1;exitY=0.5;exitDx=0;exitDy=0;" parent="1" source="5" target="44" edge="1">
                    <mxGeometry width="50" height="50" relative="1" as="geometry">
                        <mxPoint x="670.0000000000005" y="80" as="sourcePoint"/>
                        <mxPoint x="730.0000000000005" y="70" as="targetPoint"/>
                    </mxGeometry>
                </mxCell>
                <mxCell id="50" value="" style="endArrow=none;html=1;entryX=0;entryY=0;entryDx=0;entryDy=0;exitX=1;exitY=0.75;exitDx=0;exitDy=0;" parent="1" source="5" target="46" edge="1">
                    <mxGeometry width="50" height="50" relative="1" as="geometry">
                        <mxPoint x="660.0000000000005" y="100" as="sourcePoint"/>
                        <mxPoint x="880.0000000000005" y="70" as="targetPoint"/>
                    </mxGeometry>
                </mxCell>
            </root>
        </mxGraphModel>
    </diagram>
</mxfile>